<svg width="200" height="198" viewBox="0 0 200 198" fill="none" xmlns="http://www.w3.org/2000/svg">
<path d="M19.776 90.904C18.176 90.904 16.64 90.712 15.168 90.328C13.76 89.88 12.64 89.112 11.808 88.024C11.36 87.384 10.688 86.488 9.792 85.336C8.96 84.12 8.544 82.968 8.544 81.88C8.544 81.112 8.736 80.504 9.12 80.056C10.016 78.904 10.72 77.848 11.232 76.888C11.808 75.928 12.384 74.776 12.96 73.432C13.536 72.024 14.24 70.168 15.072 67.864C15.392 67.16 15.648 66.392 15.84 65.56C16.032 64.728 16.416 64.472 16.992 64.792C17.248 64.92 17.248 65.56 16.992 66.712C16.736 67.8 16.544 68.792 16.416 69.688C16.352 70.008 16.32 70.328 16.32 70.648C16.32 70.968 16.32 71.288 16.32 71.608C16.32 74.808 16.96 77.464 18.24 79.576C19.584 81.688 21.28 83.256 23.328 84.28C25.44 85.24 27.68 85.72 30.048 85.72C32.672 85.72 35.232 85.144 37.728 83.992C40.288 82.776 42.432 81.016 44.16 78.712C45.888 76.408 46.88 73.624 47.136 70.36C47.264 68.248 46.848 66.584 45.888 65.368C44.928 64.152 43.616 63.256 41.952 62.68C40.288 62.104 38.432 61.72 36.384 61.528C34.4 61.336 32.416 61.176 30.432 61.048C25.696 60.728 22.112 59.416 19.68 57.112C17.248 54.744 16.128 52.184 16.32 49.432C16.512 46.36 17.696 43.544 19.872 40.984C22.048 38.424 24.768 36.184 28.032 34.264C31.296 32.344 34.752 30.872 38.4 29.848C42.048 28.824 45.472 28.312 48.672 28.312C51.168 28.312 53.376 28.664 55.296 29.368C57.216 30.072 58.624 31.16 59.52 32.632C60.416 34.168 60.864 35.448 60.864 36.472C60.864 37.112 60.704 37.752 60.384 38.392C60.064 38.968 59.584 39.64 58.944 40.408C58.176 41.432 57.504 42.296 56.928 43C56.416 43.704 55.872 44.568 55.296 45.592C54.784 46.552 54.112 47.896 53.28 49.624C52.96 50.328 52.608 50.68 52.224 50.68C51.968 50.68 51.84 50.456 51.84 50.008C51.84 49.624 51.968 49.208 52.224 48.76C52.8 46.904 53.088 45.272 53.088 43.864C53.088 41.496 52.48 39.512 51.264 37.912C50.112 36.248 48.608 35 46.752 34.168C44.896 33.272 42.912 32.824 40.8 32.824C38.624 32.824 36.512 33.304 34.464 34.264C32.48 35.16 30.784 36.6 29.376 38.584C28.032 40.504 27.232 42.968 26.976 45.976C26.848 47.768 27.232 49.208 28.128 50.296C29.024 51.384 30.208 52.216 31.68 52.792C33.216 53.368 34.784 53.784 36.384 54.04C38.048 54.296 39.584 54.456 40.992 54.52C42.4 54.52 43.424 54.552 44.064 54.616C49.248 54.808 52.768 55.768 54.624 57.496C56.544 59.16 57.44 61.176 57.312 63.544C57.056 66.872 55.872 70.168 53.76 73.432C51.712 76.632 48.96 79.576 45.504 82.264C42.048 84.888 38.112 87 33.696 88.6C29.28 90.136 24.64 90.904 19.776 90.904Z" fill="white"/>
<path d="M87.344 128.8C84.784 128.736 82.384 127.84 80.144 126.112C77.904 124.448 75.856 122.336 74 119.776C72.208 117.152 70.672 114.496 69.392 111.808C68.112 109.12 67.12 106.784 66.416 104.8C65.968 103.392 65.424 101.952 64.784 100.48C64.144 98.944 63.536 97.632 62.96 96.544C62.384 95.456 61.936 94.816 61.616 94.624C61.104 94.368 60.848 93.952 60.848 93.376C60.848 92.992 60.976 92.64 61.232 92.32C61.552 91.936 61.872 91.744 62.192 91.744C62.576 91.744 62.8 91.968 62.864 92.416C62.992 92.8 63.28 93.248 63.728 93.76C64.176 94.208 65.04 94.528 66.32 94.72C68.24 94.912 70.096 94.336 71.888 92.992C73.68 91.584 75.28 89.76 76.688 87.52C78.096 85.28 79.216 82.976 80.048 80.608C80.944 78.24 81.456 76.224 81.584 74.56C81.776 71.744 81.264 69.344 80.048 67.36C78.896 65.312 76.912 64.288 74.096 64.288C71.216 64.288 69.04 65.312 67.568 67.36C66.096 69.408 64.752 72 63.536 75.136C63.28 75.904 62.864 77.28 62.288 79.264C61.712 81.248 61.008 84.064 60.176 87.712C59.408 91.296 58.48 95.936 57.392 101.632C57.328 102.08 57.168 103.008 56.912 104.416C56.72 105.76 56.528 107.264 56.336 108.928C56.144 110.592 56.048 112.192 56.048 113.728C56.048 114.048 56.048 114.4 56.048 114.784C56.048 115.104 56.08 115.424 56.144 115.744C56.272 117.152 56.752 118.368 57.584 119.392C58.48 120.352 59.632 120.896 61.04 121.024C62.32 121.216 63.92 121.312 65.84 121.312C66.672 121.312 67.44 121.312 68.144 121.312C68.912 121.248 69.616 121.184 70.256 121.12C70.448 121.12 70.544 121.216 70.544 121.408C70.544 121.664 70.352 122.016 69.968 122.464C69.648 122.848 69.296 123.008 68.912 122.944C63.792 122.816 59.664 122.72 56.528 122.656C53.456 122.592 50.96 122.56 49.04 122.56C47.184 122.496 45.552 122.464 44.144 122.464C43.184 122.464 41.776 122.496 39.92 122.56C38.064 122.624 36.016 122.688 33.776 122.752C31.536 122.752 29.392 122.752 27.344 122.752H27.248C27.056 122.752 26.96 122.656 26.96 122.464C26.96 122.208 27.12 121.92 27.44 121.6C27.824 121.216 28.144 121.056 28.4 121.12C29.936 121.12 31.312 121.152 32.528 121.216C33.744 121.216 34.8 121.216 35.696 121.216C38 121.216 39.696 120.992 40.784 120.544C41.872 120.032 42.736 119.008 43.376 117.472C44.016 115.936 44.784 113.568 45.68 110.368C47.664 103.392 49.296 96.704 50.576 90.304C51.856 83.84 53.104 77.12 54.32 70.144C54.512 68.864 54.256 67.776 53.552 66.88C52.912 65.92 52.176 65.376 51.344 65.248C50.704 65.12 49.616 65.024 48.08 64.96C46.608 64.896 45.136 64.864 43.664 64.864C42.192 64.8 41.232 64.8 40.784 64.864C40.464 64.864 40.304 64.736 40.304 64.48C40.304 64.224 40.464 63.968 40.784 63.712C41.104 63.392 41.424 63.232 41.744 63.232C44.368 63.232 47.44 63.296 50.96 63.424C54.48 63.552 57.744 63.616 60.752 63.616H62.48C64.336 63.616 66.768 63.328 69.776 62.752C72.784 62.176 75.728 61.888 78.608 61.888C81.168 61.888 83.504 62.304 85.616 63.136C87.728 63.968 89.424 65.216 90.704 66.88C92.048 68.48 92.72 70.56 92.72 73.12C92.72 73.632 92.688 74.176 92.624 74.752C92.56 75.328 92.464 75.936 92.336 76.576C91.824 79.136 90.64 81.632 88.784 84.064C86.928 86.432 84.688 88.544 82.064 90.4C79.504 92.192 76.816 93.568 74 94.528C72.208 95.104 70.672 95.52 69.392 95.776C68.112 95.968 67.024 96.064 66.128 96.064C65.872 96.064 65.616 96.064 65.36 96.064C65.104 96.064 64.88 96.032 64.688 95.968C65.584 97.184 66.992 98.816 68.912 100.864C70.832 102.848 72.976 104.992 75.344 107.296C77.712 109.536 80.08 111.712 82.448 113.824C84.816 115.936 86.928 117.792 88.784 119.392C90.704 120.928 92.08 121.952 92.912 122.464C93.808 123.04 94.832 123.552 95.984 124C97.136 124.512 97.968 124.832 98.48 124.96C98.8 125.088 98.96 125.312 98.96 125.632C98.96 126.144 98.704 126.4 98.192 126.4C97.936 126.4 97.616 126.304 97.232 126.112C96.72 125.856 96.24 125.728 95.792 125.728C95.28 125.728 94.864 125.856 94.544 126.112C94.224 126.432 93.904 126.688 93.584 126.88C92.816 127.392 91.856 127.84 90.704 128.224C89.616 128.608 88.496 128.8 87.344 128.8Z" fill="white"/>
</svg>
